<svg width="16" height="16" viewBox="0 0 16 16" fill="none" xmlns="http://www.w3.org/2000/svg">
<g id="Frame" clip-path="url(#clip0_1_1642)">
<g id="Group">
<path id="Vector" d="M15.9 14.4452L12.3 11.0167C13.3 9.87393 14 8.44542 14 6.7312C14 3.01708 10.9 0.0648193 7 0.0648193C5.2 0.0648193 3.7 0.731458 2.4 1.6838C2.2 1.87427 1.9 2.15997 1.7 2.35044C0.7 3.58848 0 5.01699 0 6.7312C0 10.4453 3.1 13.3976 7 13.3976C8.8 13.3976 10.3 12.731 11.6 11.7786L15.2 15.207C15.3 15.3023 15.4 15.3023 15.6 15.3023C15.8 15.3023 15.9 15.3023 16 15.207C16 15.0166 16 14.6356 15.9 14.4452ZM10.9 11.112C9.8 11.9691 8.5 12.4452 7 12.4452C3.7 12.4452 1 9.87393 1 6.7312C1 5.30269 1.5 4.06465 2.4 3.01708C2.6 2.73137 2.9 2.54091 3.1 2.35044C4.2 1.49333 5.5 1.01716 7 1.01716C10.3 1.01716 13 3.58848 13 6.7312C13 8.15972 12.5 9.39776 11.6 10.4453C11.4 10.6358 11.1 10.9215 10.9 11.112Z" fill="white"/>
</g>
</g>
<defs>
<clipPath id="clip0_1_1642">
<rect width="16" height="15.2375" fill="white" transform="translate(0 0.0648193)"/>
</clipPath>
</defs>
</svg>
